name ./resultDataOpenSim/trcMotMarkerGrf/sub09/grf-03-02.mot
datacolumns 19
datarows 15
range 1.48800000 1.54400000
endheader

                time	     ground_force_vx	     ground_force_vy	     ground_force_vz	     ground_force_px	     ground_force_py	     ground_force_pz	   l_ground_force_vx	   l_ground_force_vy	   l_ground_force_vz	   l_ground_force_px	   l_ground_force_py	   l_ground_force_pz	     ground_torque_x	     ground_torque_y	     ground_torque_z	   l_ground_torque_x	   l_ground_torque_y	   l_ground_torque_z	
          1.48800000	        -40.62726290	        459.50768981	        -18.33915121	          0.97482069	          0.00000000	          0.13854283	          0.00000000	          0.00000000	          0.00000000	          0.00000000	          0.00000000	          0.00000000	          0.00000000	          2.69591694	          0.00000000	          0.00000000	          0.00000000	          0.00000000	
          1.49200000	        -40.90227378	        458.93624508	        -16.01950096	          0.97649038	          0.00000000	          0.13835006	          0.00000000	          0.00000000	          0.00000000	          0.00000000	          0.00000000	          0.00000000	          0.00000000	          2.89036131	          0.00000000	          0.00000000	          0.00000000	          0.00000000	
          1.49600000	        -40.89263806	        458.75332274	        -14.41475687	          0.97800021	          0.00000000	          0.13818315	          0.00000000	          0.00000000	          0.00000000	          0.00000000	          0.00000000	          0.00000000	          0.00000000	          3.04998921	          0.00000000	          0.00000000	          0.00000000	          0.00000000	
          1.50000000	        -40.31444003	        458.95115866	        -13.73466587	          0.97931304	          0.00000000	          0.13805444	          0.00000000	          0.00000000	          0.00000000	          0.00000000	          0.00000000	          0.00000000	          0.00000000	          3.14785093	          0.00000000	          0.00000000	          0.00000000	          0.00000000	
          1.50400000	        -39.04180580	        459.51561291	        -14.02301996	          0.98040816	          0.00000000	          0.13796922	          0.00000000	          0.00000000	          0.00000000	          0.00000000	          0.00000000	          0.00000000	          0.00000000	          3.17147462	          0.00000000	          0.00000000	          0.00000000	          0.00000000	
          1.50800000	        -37.13582156	        460.40701030	        -15.15111184	          0.98132092	          0.00000000	          0.13793424	          0.00000000	          0.00000000	          0.00000000	          0.00000000	          0.00000000	          0.00000000	          0.00000000	          3.12625658	          0.00000000	          0.00000000	          0.00000000	          0.00000000	
          1.51200000	        -34.82839589	        461.57725416	        -16.84662090	          0.98208391	          0.00000000	          0.13794263	          0.00000000	          0.00000000	          0.00000000	          0.00000000	          0.00000000	          0.00000000	          0.00000000	          3.03357798	          0.00000000	          0.00000000	          0.00000000	          0.00000000	
          1.51600000	        -32.46257844	        462.99088715	        -18.75833001	          0.98275896	          0.00000000	          0.13797612	          0.00000000	          0.00000000	          0.00000000	          0.00000000	          0.00000000	          0.00000000	          0.00000000	          2.92427401	          0.00000000	          0.00000000	          0.00000000	          0.00000000	
          1.52000000	        -30.39241122	        464.62701427	        -20.53487477	          0.98340655	          0.00000000	          0.13801353	          0.00000000	          0.00000000	          0.00000000	          0.00000000	          0.00000000	          0.00000000	          0.00000000	          2.82986328	          0.00000000	          0.00000000	          0.00000000	          0.00000000	
          1.52400000	        -28.87171863	        466.47142088	        -21.88803482	          0.98406650	          0.00000000	          0.13803469	          0.00000000	          0.00000000	          0.00000000	          0.00000000	          0.00000000	          0.00000000	          0.00000000	          2.77459984	          0.00000000	          0.00000000	          0.00000000	          0.00000000	
          1.52800000	        -27.97711437	        468.50793540	        -22.63587295	          0.98474832	          0.00000000	          0.13802491	          0.00000000	          0.00000000	          0.00000000	          0.00000000	          0.00000000	          0.00000000	          0.00000000	          2.77068895	          0.00000000	          0.00000000	          0.00000000	          0.00000000	
          1.53200000	        -27.59433001	        470.71540794	        -22.72887502	          0.98543730	          0.00000000	          0.13798609	          0.00000000	          0.00000000	          0.00000000	          0.00000000	          0.00000000	          0.00000000	          0.00000000	          2.81737544	          0.00000000	          0.00000000	          0.00000000	          0.00000000	
          1.53600000	        -27.46337089	        473.07768851	        -22.25123423	          0.98610110	          0.00000000	          0.13793457	          0.00000000	          0.00000000	          0.00000000	          0.00000000	          0.00000000	          0.00000000	          0.00000000	          2.90306476	          0.00000000	          0.00000000	          0.00000000	          0.00000000	
          1.54000000	        -27.25574643	        475.59969744	        -21.39984851	          0.98670542	          0.00000000	          0.13789103	          0.00000000	          0.00000000	          0.00000000	          0.00000000	          0.00000000	          0.00000000	          0.00000000	          3.00903493	          0.00000000	          0.00000000	          0.00000000	          0.00000000	
          1.54400000	        -26.66005809	        478.30910425	        -20.45255565	          0.98720968	          0.00000000	          0.13787486	          0.00000000	          0.00000000	          0.00000000	          0.00000000	          0.00000000	          0.00000000	          0.00000000	          3.11369757	          0.00000000	          0.00000000	          0.00000000	          0.00000000	
